# xmcd CD database file
#
# Track frame offsets:
#	182
#	13750
#	23557
#	43607
#	56187
#	69960
#	81282
#	93695
#	106062
#	121197
#	136785
#	151132
#	162652
#	177457
#	188357
#	200317
#	215332
#	225425
#
# Disc length: 3187 seconds
#
# Revision: 2
# Processed by: cddbd v1.4b41PL1 Copyright (c) Steve Scherf et al.
# Submitted via: Feurio! 1.50.2ß - http://www.feurio.com
#
DISCID=e30c7112
DTITLE=Various Artist - On Top! Country and Trucker Hits
DYEAR=1900
DGENRE=
TTITLE0=Ellen Ashley - Coal Miner's Daughter
TTITLE1=Dave Dudley - Just a Few More Miles
TTITLE2=Jeff Donnell - Coward of The Country
TTITLE3=Nashville Riders - Eighteen Wheels (Humming Home Sweet Home)
TTITLE4=Nic Cage - Gentle on my Mind
TTITLE5=Dave Dudley - Movin' on
TTITLE6=Loredana and The Nashville Gospel Choir - I Can't Stop Loving You
TTITLE7=Red Sovine - Freightliner Fever
TTITLE8=Loredana - I'm Not Liza
TTITLE9=George Pride - C. B. Savage
TTITLE10=Willie Wilson - Me And Bobby McGee
TTITLE11=Dave Dudley - Southbound And Down
TTITLE12=Diane Glover - Mule Skinner Blues
TTITLE13=John O'Hara - Tennessee is Home to me
TTITLE14=Jonny Adams - Ring of Fire
TTITLE15=Willie Nelson - The Gambler
TTITLE16=Dave Dudley - Looking at The World Through a Windshield
TTITLE17=Linda Faron and The Nashville Gospel Choir - The Seeker
EXTD=
EXTT0=
EXTT1=
EXTT2=
EXTT3=
EXTT4=
EXTT5=
EXTT6=
EXTT7=
EXTT8=
EXTT9=
EXTT10=
EXTT11=
EXTT12=
EXTT13=
EXTT14=
EXTT15=
EXTT16=
EXTT17=
PLAYORDER=
